<?xml version="1.0" encoding="UTF-8" standalone="no"?>
<!DOCTYPE svg PUBLIC "-//W3C//DTD SVG 1.1//EN"
 "http://www.w3.org/Graphics/SVG/1.1/DTD/svg11.dtd">
<!-- Generated by graphviz version 12.1.0 (20240811.2233)
 -->
<!-- Title: G Pages: 1 -->
<svg width="1203pt" height="1697pt"
 viewBox="0.00 0.00 1203.20 1697.20" xmlns="http://www.w3.org/2000/svg" xmlns:xlink="http://www.w3.org/1999/xlink">
<g id="graph0" class="graph" transform="scale(1 1) rotate(0) translate(21.6 1675.6)">
<title>G</title>
<polygon fill="#111111" stroke="none" points="-21.6,21.6 -21.6,-1675.6 1181.6,-1675.6 1181.6,21.6 -21.6,21.6"/>
<!-- .next/server/app/_not&#45;found/page.js -->
<g id="node1" class="node">
<title>.next/server/app/_not&#45;found/page.js</title>
<path fill="none" stroke="#c6c5fe" d="M445.46,-134C445.46,-134 289.04,-134 289.04,-134 285.71,-134 282.38,-130.67 282.38,-127.33 282.38,-127.33 282.38,-120.67 282.38,-120.67 282.38,-117.33 285.71,-114 289.04,-114 289.04,-114 445.46,-114 445.46,-114 448.79,-114 452.12,-117.33 452.12,-120.67 452.12,-120.67 452.12,-127.33 452.12,-127.33 452.12,-130.67 448.79,-134 445.46,-134"/>
<text text-anchor="middle" x="367.25" y="-120.5" font-family="Arial" font-size="10.00" fill="#c6c5fe">.next/server/app/_not&#45;found/page.js</text>
</g>
<!-- .next/server/webpack&#45;runtime.js -->
<g id="node2" class="node">
<title>.next/server/webpack&#45;runtime.js</title>
<path fill="none" stroke="#cfffac" d="M1036.33,-134C1036.33,-134 894.17,-134 894.17,-134 890.83,-134 887.5,-130.67 887.5,-127.33 887.5,-127.33 887.5,-120.67 887.5,-120.67 887.5,-117.33 890.83,-114 894.17,-114 894.17,-114 1036.33,-114 1036.33,-114 1039.67,-114 1043,-117.33 1043,-120.67 1043,-120.67 1043,-127.33 1043,-127.33 1043,-130.67 1039.67,-134 1036.33,-134"/>
<text text-anchor="middle" x="965.25" y="-120.5" font-family="Arial" font-size="10.00" fill="#cfffac">.next/server/webpack&#45;runtime.js</text>
</g>
<!-- .next/server/app/_not&#45;found/page.js&#45;&gt;.next/server/webpack&#45;runtime.js -->
<g id="edge1" class="edge">
<title>.next/server/app/_not&#45;found/page.js&#45;&gt;.next/server/webpack&#45;runtime.js</title>
<path fill="none" stroke="#757575" d="M452.38,-124C564.37,-124 761.53,-124 875.71,-124"/>
<polygon fill="#757575" stroke="#757575" points="875.66,-127.5 885.66,-124 875.66,-120.5 875.66,-127.5"/>
</g>
<!-- node_modules/next/dist/client/components/action&#45;async&#45;storage.external.js -->
<g id="node3" class="node">
<title>node_modules/next/dist/client/components/action&#45;async&#45;storage.external.js</title>
<path fill="none" stroke="#cfffac" d="M1130.46,-96C1130.46,-96 800.04,-96 800.04,-96 796.71,-96 793.38,-92.67 793.38,-89.33 793.38,-89.33 793.38,-82.67 793.38,-82.67 793.38,-79.33 796.71,-76 800.04,-76 800.04,-76 1130.46,-76 1130.46,-76 1133.79,-76 1137.12,-79.33 1137.12,-82.67 1137.12,-82.67 1137.12,-89.33 1137.12,-89.33 1137.12,-92.67 1133.79,-96 1130.46,-96"/>
<text text-anchor="middle" x="965.25" y="-82.5" font-family="Arial" font-size="10.00" fill="#cfffac">node_modules/next/dist/client/components/action&#45;async&#45;storage.external.js</text>
</g>
<!-- .next/server/app/_not&#45;found/page.js&#45;&gt;node_modules/next/dist/client/components/action&#45;async&#45;storage.external.js -->
<g id="edge2" class="edge">
<title>.next/server/app/_not&#45;found/page.js&#45;&gt;node_modules/next/dist/client/components/action&#45;async&#45;storage.external.js</title>
<path fill="none" stroke="#757575" d="M452.3,-120.37C526.56,-116.99 637.78,-111.51 734.5,-105 766.92,-102.82 801.88,-100.11 834.51,-97.43"/>
<polygon fill="#757575" stroke="#757575" points="834.76,-100.92 844.44,-96.61 834.18,-93.94 834.76,-100.92"/>
</g>
<!-- node_modules/next/dist/client/components/request&#45;async&#45;storage.external.js -->
<g id="node4" class="node">
<title>node_modules/next/dist/client/components/request&#45;async&#45;storage.external.js</title>
<path fill="none" stroke="#cfffac" d="M1133.46,-58C1133.46,-58 797.04,-58 797.04,-58 793.71,-58 790.38,-54.67 790.38,-51.33 790.38,-51.33 790.38,-44.67 790.38,-44.67 790.38,-41.33 793.71,-38 797.04,-38 797.04,-38 1133.46,-38 1133.46,-38 1136.79,-38 1140.12,-41.33 1140.12,-44.67 1140.12,-44.67 1140.12,-51.33 1140.12,-51.33 1140.12,-54.67 1136.79,-58 1133.46,-58"/>
<text text-anchor="middle" x="965.25" y="-44.5" font-family="Arial" font-size="10.00" fill="#cfffac">node_modules/next/dist/client/components/request&#45;async&#45;storage.external.js</text>
</g>
<!-- .next/server/app/_not&#45;found/page.js&#45;&gt;node_modules/next/dist/client/components/request&#45;async&#45;storage.external.js -->
<g id="edge3" class="edge">
<title>.next/server/app/_not&#45;found/page.js&#45;&gt;node_modules/next/dist/client/components/request&#45;async&#45;storage.external.js</title>
<path fill="none" stroke="#757575" d="M432.21,-134.48C508.09,-143.89 636.64,-150.13 734.5,-105 755.63,-95.26 749.6,-77.23 770.5,-67 773.84,-65.37 777.25,-63.84 780.72,-62.41"/>
<polygon fill="#757575" stroke="#757575" points="781.76,-65.76 789.87,-58.95 779.28,-59.21 781.76,-65.76"/>
</g>
<!-- node_modules/next/dist/client/components/static&#45;generation&#45;async&#45;storage.external.js -->
<g id="node5" class="node">
<title>node_modules/next/dist/client/components/static&#45;generation&#45;async&#45;storage.external.js</title>
<path fill="none" stroke="#cfffac" d="M1153.33,-20C1153.33,-20 777.17,-20 777.17,-20 773.83,-20 770.5,-16.67 770.5,-13.33 770.5,-13.33 770.5,-6.67 770.5,-6.67 770.5,-3.33 773.83,0 777.17,0 777.17,0 1153.33,0 1153.33,0 1156.67,0 1160,-3.33 1160,-6.67 1160,-6.67 1160,-13.33 1160,-13.33 1160,-16.67 1156.67,-20 1153.33,-20"/>
<text text-anchor="middle" x="965.25" y="-6.5" font-family="Arial" font-size="10.00" fill="#cfffac">node_modules/next/dist/client/components/static&#45;generation&#45;async&#45;storage.external.js</text>
</g>
<!-- .next/server/app/_not&#45;found/page.js&#45;&gt;node_modules/next/dist/client/components/static&#45;generation&#45;async&#45;storage.external.js -->
<g id="edge4" class="edge">
<title>.next/server/app/_not&#45;found/page.js&#45;&gt;node_modules/next/dist/client/components/static&#45;generation&#45;async&#45;storage.external.js</title>
<path fill="none" stroke="#757575" d="M452.58,-129.36C546.22,-133.64 690.06,-134.76 734.5,-105 765.55,-84.2 739.93,-50.51 770.5,-29 771.93,-28 773.37,-27.03 774.84,-26.09"/>
<polygon fill="#757575" stroke="#757575" points="776.56,-29.13 783.48,-21.1 773.07,-23.07 776.56,-29.13"/>
</g>
<!-- node_modules/next/dist/compiled/next&#45;server/app&#45;page&#45;experimental.runtime.dev.js -->
<g id="node6" class="node">
<title>node_modules/next/dist/compiled/next&#45;server/app&#45;page&#45;experimental.runtime.dev.js</title>
<path fill="none" stroke="#cfffac" d="M1147.71,-172C1147.71,-172 782.79,-172 782.79,-172 779.46,-172 776.12,-168.67 776.12,-165.33 776.12,-165.33 776.12,-158.67 776.12,-158.67 776.12,-155.33 779.46,-152 782.79,-152 782.79,-152 1147.71,-152 1147.71,-152 1151.04,-152 1154.38,-155.33 1154.38,-158.67 1154.38,-158.67 1154.38,-165.33 1154.38,-165.33 1154.38,-168.67 1151.04,-172 1147.71,-172"/>
<text text-anchor="middle" x="965.25" y="-158.5" font-family="Arial" font-size="10.00" fill="#cfffac">node_modules/next/dist/compiled/next&#45;server/app&#45;page&#45;experimental.runtime.dev.js</text>
</g>
<!-- .next/server/app/_not&#45;found/page.js&#45;&gt;node_modules/next/dist/compiled/next&#45;server/app&#45;page&#45;experimental.runtime.dev.js -->
<g id="edge5" class="edge">
<title>.next/server/app/_not&#45;found/page.js&#45;&gt;node_modules/next/dist/compiled/next&#45;server/app&#45;page&#45;experimental.runtime.dev.js</title>
<path fill="none" stroke="#757575" d="M452.3,-127.63C526.56,-131.01 637.78,-136.49 734.5,-143 766.92,-145.18 801.88,-147.89 834.51,-150.57"/>
<polygon fill="#757575" stroke="#757575" points="834.18,-154.06 844.44,-151.39 834.76,-147.08 834.18,-154.06"/>
</g>
<!-- .next/server/app/_not&#45;found/page_client&#45;reference&#45;manifest.js -->
<g id="node7" class="node">
<title>.next/server/app/_not&#45;found/page_client&#45;reference&#45;manifest.js</title>
<path fill="none" stroke="#cfffac" d="M501.71,-172C501.71,-172 232.79,-172 232.79,-172 229.46,-172 226.12,-168.67 226.12,-165.33 226.12,-165.33 226.12,-158.67 226.12,-158.67 226.12,-155.33 229.46,-152 232.79,-152 232.79,-152 501.71,-152 501.71,-152 505.04,-152 508.38,-155.33 508.38,-158.67 508.38,-158.67 508.38,-165.33 508.38,-165.33 508.38,-168.67 505.04,-172 501.71,-172"/>
<text text-anchor="middle" x="367.25" y="-158.5" font-family="Arial" font-size="10.00" fill="#cfffac">.next/server/app/_not&#45;found/page_client&#45;reference&#45;manifest.js</text>
</g>
<!-- .next/server/app/dashboard/(overview)/page.js -->
<g id="node8" class="node">
<title>.next/server/app/dashboard/(overview)/page.js</title>
<path fill="none" stroke="#c6c5fe" d="M469.08,-96C469.08,-96 265.42,-96 265.42,-96 262.08,-96 258.75,-92.67 258.75,-89.33 258.75,-89.33 258.75,-82.67 258.75,-82.67 258.75,-79.33 262.08,-76 265.42,-76 265.42,-76 469.08,-76 469.08,-76 472.42,-76 475.75,-79.33 475.75,-82.67 475.75,-82.67 475.75,-89.33 475.75,-89.33 475.75,-92.67 472.42,-96 469.08,-96"/>
<text text-anchor="middle" x="367.25" y="-82.5" font-family="Arial" font-size="10.00" fill="#c6c5fe">.next/server/app/dashboard/(overview)/page.js</text>
</g>
<!-- .next/server/app/dashboard/(overview)/page.js&#45;&gt;.next/server/webpack&#45;runtime.js -->
<g id="edge6" class="edge">
<title>.next/server/app/dashboard/(overview)/page.js&#45;&gt;.next/server/webpack&#45;runtime.js</title>
<path fill="none" stroke="#757575" d="M476.08,-90.72C549.06,-94.13 647.63,-99.16 734.5,-105 781.24,-108.14 833.26,-112.38 875.97,-116.06"/>
<polygon fill="#757575" stroke="#757575" points="875.41,-119.53 885.68,-116.9 876.02,-112.55 875.41,-119.53"/>
</g>
<!-- .next/server/app/dashboard/(overview)/page.js&#45;&gt;node_modules/next/dist/client/components/action&#45;async&#45;storage.external.js -->
<g id="edge7" class="edge">
<title>.next/server/app/dashboard/(overview)/page.js&#45;&gt;node_modules/next/dist/client/components/action&#45;async&#45;storage.external.js</title>
<path fill="none" stroke="#757575" d="M476.18,-86C561.21,-86 681.68,-86 781.65,-86"/>
<polygon fill="#757575" stroke="#757575" points="781.6,-89.5 791.6,-86 781.6,-82.5 781.6,-89.5"/>
</g>
<!-- .next/server/app/dashboard/(overview)/page.js&#45;&gt;node_modules/next/dist/client/components/request&#45;async&#45;storage.external.js -->
<g id="edge8" class="edge">
<title>.next/server/app/dashboard/(overview)/page.js&#45;&gt;node_modules/next/dist/client/components/request&#45;async&#45;storage.external.js</title>
<path fill="none" stroke="#757575" d="M476.08,-81.28C549.06,-77.87 647.63,-72.84 734.5,-67 766.92,-64.82 801.88,-62.11 834.51,-59.43"/>
<polygon fill="#757575" stroke="#757575" points="834.76,-62.92 844.44,-58.61 834.18,-55.94 834.76,-62.92"/>
</g>
<!-- .next/server/app/dashboard/(overview)/page.js&#45;&gt;node_modules/next/dist/client/components/static&#45;generation&#45;async&#45;storage.external.js -->
<g id="edge9" class="edge">
<title>.next/server/app/dashboard/(overview)/page.js&#45;&gt;node_modules/next/dist/client/components/static&#45;generation&#45;async&#45;storage.external.js</title>
<path fill="none" stroke="#757575" d="M432.21,-96.48C508.09,-105.89 636.64,-112.13 734.5,-67 755.63,-57.26 749.6,-39.23 770.5,-29 773.84,-27.37 777.25,-25.84 780.72,-24.41"/>
<polygon fill="#757575" stroke="#757575" points="781.76,-27.76 789.87,-20.95 779.28,-21.21 781.76,-27.76"/>
</g>
<!-- .next/server/app/dashboard/(overview)/page.js&#45;&gt;node_modules/next/dist/compiled/next&#45;server/app&#45;page&#45;experimental.runtime.dev.js -->
<g id="edge10" class="edge">
<title>.next/server/app/dashboard/(overview)/page.js&#45;&gt;node_modules/next/dist/compiled/next&#45;server/app&#45;page&#45;experimental.runtime.dev.js</title>
<path fill="none" stroke="#757575" d="M432.21,-75.52C508.09,-66.11 636.64,-59.87 734.5,-105 755.63,-114.74 749.6,-132.77 770.5,-143 773.84,-144.63 777.25,-146.16 780.72,-147.59"/>
<polygon fill="#757575" stroke="#757575" points="779.28,-150.79 789.87,-151.05 781.76,-144.24 779.28,-150.79"/>
</g>
<!-- .next/server/app/dashboard/(overview)/page_client&#45;reference&#45;manifest.js -->
<g id="node9" class="node">
<title>.next/server/app/dashboard/(overview)/page_client&#45;reference&#45;manifest.js</title>
<path fill="none" stroke="#cfffac" d="M525.33,-210C525.33,-210 209.17,-210 209.17,-210 205.83,-210 202.5,-206.67 202.5,-203.33 202.5,-203.33 202.5,-196.67 202.5,-196.67 202.5,-193.33 205.83,-190 209.17,-190 209.17,-190 525.33,-190 525.33,-190 528.67,-190 532,-193.33 532,-196.67 532,-196.67 532,-203.33 532,-203.33 532,-206.67 528.67,-210 525.33,-210"/>
<text text-anchor="middle" x="367.25" y="-196.5" font-family="Arial" font-size="10.00" fill="#cfffac">.next/server/app/dashboard/(overview)/page_client&#45;reference&#45;manifest.js</text>
</g>
<!-- .next/server/app/dashboard/invoices/page.js -->
<g id="node10" class="node">
<title>.next/server/app/dashboard/invoices/page.js</title>
<path fill="none" stroke="#c6c5fe" d="M464.58,-58C464.58,-58 269.92,-58 269.92,-58 266.58,-58 263.25,-54.67 263.25,-51.33 263.25,-51.33 263.25,-44.67 263.25,-44.67 263.25,-41.33 266.58,-38 269.92,-38 269.92,-38 464.58,-38 464.58,-38 467.92,-38 471.25,-41.33 471.25,-44.67 471.25,-44.67 471.25,-51.33 471.25,-51.33 471.25,-54.67 467.92,-58 464.58,-58"/>
<text text-anchor="middle" x="367.25" y="-44.5" font-family="Arial" font-size="10.00" fill="#c6c5fe">.next/server/app/dashboard/invoices/page.js</text>
</g>
<!-- .next/server/app/dashboard/invoices/page.js&#45;&gt;.next/server/webpack&#45;runtime.js -->
<g id="edge11" class="edge">
<title>.next/server/app/dashboard/invoices/page.js&#45;&gt;.next/server/webpack&#45;runtime.js</title>
<path fill="none" stroke="#757575" d="M432.21,-37.52C508.09,-28.11 636.64,-21.87 734.5,-67 755.63,-76.74 749.6,-94.77 770.5,-105 802.68,-120.75 841.44,-126.71 875.81,-128.29"/>
<polygon fill="#757575" stroke="#757575" points="875.65,-131.79 885.76,-128.62 875.88,-124.8 875.65,-131.79"/>
</g>
<!-- .next/server/app/dashboard/invoices/page.js&#45;&gt;node_modules/next/dist/client/components/action&#45;async&#45;storage.external.js -->
<g id="edge12" class="edge">
<title>.next/server/app/dashboard/invoices/page.js&#45;&gt;node_modules/next/dist/client/components/action&#45;async&#45;storage.external.js</title>
<path fill="none" stroke="#757575" d="M471.7,-52.52C545.09,-55.93 645.88,-61.04 734.5,-67 766.92,-69.18 801.88,-71.89 834.51,-74.57"/>
<polygon fill="#757575" stroke="#757575" points="834.18,-78.06 844.44,-75.39 834.76,-71.08 834.18,-78.06"/>
</g>
<!-- .next/server/app/dashboard/invoices/page.js&#45;&gt;node_modules/next/dist/client/components/request&#45;async&#45;storage.external.js -->
<g id="edge13" class="edge">
<title>.next/server/app/dashboard/invoices/page.js&#45;&gt;node_modules/next/dist/client/components/request&#45;async&#45;storage.external.js</title>
<path fill="none" stroke="#757575" d="M471.72,-48C556.15,-48 677.56,-48 778.71,-48"/>
<polygon fill="#757575" stroke="#757575" points="778.48,-51.5 788.48,-48 778.48,-44.5 778.48,-51.5"/>
</g>
<!-- .next/server/app/dashboard/invoices/page.js&#45;&gt;node_modules/next/dist/client/components/static&#45;generation&#45;async&#45;storage.external.js -->
<g id="edge14" class="edge">
<title>.next/server/app/dashboard/invoices/page.js&#45;&gt;node_modules/next/dist/client/components/static&#45;generation&#45;async&#45;storage.external.js</title>
<path fill="none" stroke="#757575" d="M471.72,-41.4C558.8,-35.85 685.22,-27.79 788.17,-21.23"/>
<polygon fill="#757575" stroke="#757575" points="788.38,-24.72 798.14,-20.59 787.94,-17.73 788.38,-24.72"/>
</g>
<!-- .next/server/app/dashboard/invoices/page.js&#45;&gt;node_modules/next/dist/compiled/next&#45;server/app&#45;page&#45;experimental.runtime.dev.js -->
<g id="edge15" class="edge">
<title>.next/server/app/dashboard/invoices/page.js&#45;&gt;node_modules/next/dist/compiled/next&#45;server/app&#45;page&#45;experimental.runtime.dev.js</title>
<path fill="none" stroke="#757575" d="M409.55,-37.53C482.13,-21.65 634.38,0.05 734.5,-67 765.55,-87.8 739.93,-121.49 770.5,-143 771.93,-144 773.37,-144.97 774.84,-145.91"/>
<polygon fill="#757575" stroke="#757575" points="773.07,-148.93 783.48,-150.9 776.56,-142.87 773.07,-148.93"/>
</g>
<!-- .next/server/app/dashboard/invoices/page_client&#45;reference&#45;manifest.js -->
<g id="node11" class="node">
<title>.next/server/app/dashboard/invoices/page_client&#45;reference&#45;manifest.js</title>
<path fill="none" stroke="#cfffac" d="M520.83,-248C520.83,-248 213.67,-248 213.67,-248 210.33,-248 207,-244.67 207,-241.33 207,-241.33 207,-234.67 207,-234.67 207,-231.33 210.33,-228 213.67,-228 213.67,-228 520.83,-228 520.83,-228 524.17,-228 527.5,-231.33 527.5,-234.67 527.5,-234.67 527.5,-241.33 527.5,-241.33 527.5,-244.67 524.17,-248 520.83,-248"/>
<text text-anchor="middle" x="367.25" y="-234.5" font-family="Arial" font-size="10.00" fill="#cfffac">.next/server/app/dashboard/invoices/page_client&#45;reference&#45;manifest.js</text>
</g>
<!-- .next/server/interception&#45;route&#45;rewrite&#45;manifest.js -->
<g id="node12" class="node">
<title>.next/server/interception&#45;route&#45;rewrite&#45;manifest.js</title>
<path fill="none" stroke="#cfffac" d="M475.08,-286C475.08,-286 259.42,-286 259.42,-286 256.08,-286 252.75,-282.67 252.75,-279.33 252.75,-279.33 252.75,-272.67 252.75,-272.67 252.75,-269.33 256.08,-266 259.42,-266 259.42,-266 475.08,-266 475.08,-266 478.42,-266 481.75,-269.33 481.75,-272.67 481.75,-272.67 481.75,-279.33 481.75,-279.33 481.75,-282.67 478.42,-286 475.08,-286"/>
<text text-anchor="middle" x="367.25" y="-272.5" font-family="Arial" font-size="10.00" fill="#cfffac">.next/server/interception&#45;route&#45;rewrite&#45;manifest.js</text>
</g>
<!-- .next/server/middleware&#45;build&#45;manifest.js -->
<g id="node13" class="node">
<title>.next/server/middleware&#45;build&#45;manifest.js</title>
<path fill="none" stroke="#cfffac" d="M457.83,-324C457.83,-324 276.67,-324 276.67,-324 273.33,-324 270,-320.67 270,-317.33 270,-317.33 270,-310.67 270,-310.67 270,-307.33 273.33,-304 276.67,-304 276.67,-304 457.83,-304 457.83,-304 461.17,-304 464.5,-307.33 464.5,-310.67 464.5,-310.67 464.5,-317.33 464.5,-317.33 464.5,-320.67 461.17,-324 457.83,-324"/>
<text text-anchor="middle" x="367.25" y="-310.5" font-family="Arial" font-size="10.00" fill="#cfffac">.next/server/middleware&#45;build&#45;manifest.js</text>
</g>
<!-- .next/server/middleware&#45;react&#45;loadable&#45;manifest.js -->
<g id="node14" class="node">
<title>.next/server/middleware&#45;react&#45;loadable&#45;manifest.js</title>
<path fill="none" stroke="#cfffac" d="M478.08,-362C478.08,-362 256.42,-362 256.42,-362 253.08,-362 249.75,-358.67 249.75,-355.33 249.75,-355.33 249.75,-348.67 249.75,-348.67 249.75,-345.33 253.08,-342 256.42,-342 256.42,-342 478.08,-342 478.08,-342 481.42,-342 484.75,-345.33 484.75,-348.67 484.75,-348.67 484.75,-355.33 484.75,-355.33 484.75,-358.67 481.42,-362 478.08,-362"/>
<text text-anchor="middle" x="367.25" y="-348.5" font-family="Arial" font-size="10.00" fill="#cfffac">.next/server/middleware&#45;react&#45;loadable&#45;manifest.js</text>
</g>
<!-- .next/server/next&#45;font&#45;manifest.js -->
<g id="node15" class="node">
<title>.next/server/next&#45;font&#45;manifest.js</title>
<path fill="none" stroke="#cfffac" d="M440.58,-400C440.58,-400 293.92,-400 293.92,-400 290.58,-400 287.25,-396.67 287.25,-393.33 287.25,-393.33 287.25,-386.67 287.25,-386.67 287.25,-383.33 290.58,-380 293.92,-380 293.92,-380 440.58,-380 440.58,-380 443.92,-380 447.25,-383.33 447.25,-386.67 447.25,-386.67 447.25,-393.33 447.25,-393.33 447.25,-396.67 443.92,-400 440.58,-400"/>
<text text-anchor="middle" x="367.25" y="-386.5" font-family="Arial" font-size="10.00" fill="#cfffac">.next/server/next&#45;font&#45;manifest.js</text>
</g>
<!-- .next/server/server&#45;reference&#45;manifest.js -->
<g id="node16" class="node">
<title>.next/server/server&#45;reference&#45;manifest.js</title>
<path fill="none" stroke="#cfffac" d="M456.71,-438C456.71,-438 277.79,-438 277.79,-438 274.46,-438 271.12,-434.67 271.12,-431.33 271.12,-431.33 271.12,-424.67 271.12,-424.67 271.12,-421.33 274.46,-418 277.79,-418 277.79,-418 456.71,-418 456.71,-418 460.04,-418 463.38,-421.33 463.38,-424.67 463.38,-424.67 463.38,-431.33 463.38,-431.33 463.38,-434.67 460.04,-438 456.71,-438"/>
<text text-anchor="middle" x="367.25" y="-424.5" font-family="Arial" font-size="10.00" fill="#cfffac">.next/server/server&#45;reference&#45;manifest.js</text>
</g>
<!-- .next/server/vendor&#45;chunks/@heroicons+react@2.1.4_react@19.0.0&#45;rc&#45;f38c22b244&#45;20240704.js -->
<g id="node17" class="node">
<title>.next/server/vendor&#45;chunks/@heroicons+react@2.1.4_react@19.0.0&#45;rc&#45;f38c22b244&#45;20240704.js</title>
<path fill="none" stroke="#cfffac" d="M577.83,-476C577.83,-476 156.67,-476 156.67,-476 153.33,-476 150,-472.67 150,-469.33 150,-469.33 150,-462.67 150,-462.67 150,-459.33 153.33,-456 156.67,-456 156.67,-456 577.83,-456 577.83,-456 581.17,-456 584.5,-459.33 584.5,-462.67 584.5,-462.67 584.5,-469.33 584.5,-469.33 584.5,-472.67 581.17,-476 577.83,-476"/>
<text text-anchor="middle" x="367.25" y="-462.5" font-family="Arial" font-size="10.00" fill="#cfffac">.next/server/vendor&#45;chunks/@heroicons+react@2.1.4_react@19.0.0&#45;rc&#45;f38c22b244&#45;20240704.js</text>
</g>
<!-- .next/server/vendor&#45;chunks/@neondatabase+serverless@0.7.2.js -->
<g id="node18" class="node">
<title>.next/server/vendor&#45;chunks/@neondatabase+serverless@0.7.2.js</title>
<path fill="none" stroke="#cfffac" d="M511.83,-514C511.83,-514 222.67,-514 222.67,-514 219.33,-514 216,-510.67 216,-507.33 216,-507.33 216,-500.67 216,-500.67 216,-497.33 219.33,-494 222.67,-494 222.67,-494 511.83,-494 511.83,-494 515.17,-494 518.5,-497.33 518.5,-500.67 518.5,-500.67 518.5,-507.33 518.5,-507.33 518.5,-510.67 515.17,-514 511.83,-514"/>
<text text-anchor="middle" x="367.25" y="-500.5" font-family="Arial" font-size="10.00" fill="#cfffac">.next/server/vendor&#45;chunks/@neondatabase+serverless@0.7.2.js</text>
</g>
<!-- .next/server/vendor&#45;chunks/@swc+helpers@0.5.11.js -->
<g id="node19" class="node">
<title>.next/server/vendor&#45;chunks/@swc+helpers@0.5.11.js</title>
<path fill="none" stroke="#cfffac" d="M485.96,-552C485.96,-552 248.54,-552 248.54,-552 245.21,-552 241.88,-548.67 241.88,-545.33 241.88,-545.33 241.88,-538.67 241.88,-538.67 241.88,-535.33 245.21,-532 248.54,-532 248.54,-532 485.96,-532 485.96,-532 489.29,-532 492.62,-535.33 492.62,-538.67 492.62,-538.67 492.62,-545.33 492.62,-545.33 492.62,-548.67 489.29,-552 485.96,-552"/>
<text text-anchor="middle" x="367.25" y="-538.5" font-family="Arial" font-size="10.00" fill="#cfffac">.next/server/vendor&#45;chunks/@swc+helpers@0.5.11.js</text>
</g>
<!-- .next/server/vendor&#45;chunks/@vercel+postgres@0.8.0.js -->
<g id="node20" class="node">
<title>.next/server/vendor&#45;chunks/@vercel+postgres@0.8.0.js</title>
<path fill="none" stroke="#cfffac" d="M490.83,-590C490.83,-590 243.67,-590 243.67,-590 240.33,-590 237,-586.67 237,-583.33 237,-583.33 237,-576.67 237,-576.67 237,-573.33 240.33,-570 243.67,-570 243.67,-570 490.83,-570 490.83,-570 494.17,-570 497.5,-573.33 497.5,-576.67 497.5,-576.67 497.5,-583.33 497.5,-583.33 497.5,-586.67 494.17,-590 490.83,-590"/>
<text text-anchor="middle" x="367.25" y="-576.5" font-family="Arial" font-size="10.00" fill="#cfffac">.next/server/vendor&#45;chunks/@vercel+postgres@0.8.0.js</text>
</g>
<!-- .next/server/vendor&#45;chunks/bufferutil@4.0.8.js -->
<g id="node21" class="node">
<title>.next/server/vendor&#45;chunks/bufferutil@4.0.8.js</title>
<path fill="none" stroke="#cfffac" d="M469.08,-628C469.08,-628 265.42,-628 265.42,-628 262.08,-628 258.75,-624.67 258.75,-621.33 258.75,-621.33 258.75,-614.67 258.75,-614.67 258.75,-611.33 262.08,-608 265.42,-608 265.42,-608 469.08,-608 469.08,-608 472.42,-608 475.75,-611.33 475.75,-614.67 475.75,-614.67 475.75,-621.33 475.75,-621.33 475.75,-624.67 472.42,-628 469.08,-628"/>
<text text-anchor="middle" x="367.25" y="-614.5" font-family="Arial" font-size="10.00" fill="#cfffac">.next/server/vendor&#45;chunks/bufferutil@4.0.8.js</text>
</g>
<!-- .next/server/vendor&#45;chunks/clsx@2.1.1.js -->
<g id="node22" class="node">
<title>.next/server/vendor&#45;chunks/clsx@2.1.1.js</title>
<path fill="none" stroke="#cfffac" d="M459.71,-666C459.71,-666 274.79,-666 274.79,-666 271.46,-666 268.12,-662.67 268.12,-659.33 268.12,-659.33 268.12,-652.67 268.12,-652.67 268.12,-649.33 271.46,-646 274.79,-646 274.79,-646 459.71,-646 459.71,-646 463.04,-646 466.38,-649.33 466.38,-652.67 466.38,-652.67 466.38,-659.33 466.38,-659.33 466.38,-662.67 463.04,-666 459.71,-666"/>
<text text-anchor="middle" x="367.25" y="-652.5" font-family="Arial" font-size="10.00" fill="#cfffac">.next/server/vendor&#45;chunks/clsx@2.1.1.js</text>
</g>
<!-- .next/server/vendor&#45;chunks/next@15.0.0&#45;canary.56_react&#45;dom@19.0.0&#45;rc&#45;f38c22b244&#45;20240704_react@19.0.0&#45;rc&#45;f38c22b244&#45;2024_ma5zmqaxqio5fndyl5qy52jyg4.js -->
<g id="node23" class="node">
<title>.next/server/vendor&#45;chunks/next@15.0.0&#45;canary.56_react&#45;dom@19.0.0&#45;rc&#45;f38c22b244&#45;20240704_react@19.0.0&#45;rc&#45;f38c22b244&#45;2024_ma5zmqaxqio5fndyl5qy52jyg4.js</title>
<path fill="none" stroke="#cfffac" d="M727.83,-704C727.83,-704 6.67,-704 6.67,-704 3.33,-704 0,-700.67 0,-697.33 0,-697.33 0,-690.67 0,-690.67 0,-687.33 3.33,-684 6.67,-684 6.67,-684 727.83,-684 727.83,-684 731.17,-684 734.5,-687.33 734.5,-690.67 734.5,-690.67 734.5,-697.33 734.5,-697.33 734.5,-700.67 731.17,-704 727.83,-704"/>
<text text-anchor="middle" x="367.25" y="-690.5" font-family="Arial" font-size="10.00" fill="#cfffac">.next/server/vendor&#45;chunks/next@15.0.0&#45;canary.56_react&#45;dom@19.0.0&#45;rc&#45;f38c22b244&#45;20240704_react@19.0.0&#45;rc&#45;f38c22b244&#45;2024_ma5zmqaxqio5fndyl5qy52jyg4.js</text>
</g>
<!-- .next/server/vendor&#45;chunks/node&#45;gyp&#45;build@4.8.1.js -->
<g id="node24" class="node">
<title>.next/server/vendor&#45;chunks/node&#45;gyp&#45;build@4.8.1.js</title>
<path fill="none" stroke="#cfffac" d="M482.21,-742C482.21,-742 252.29,-742 252.29,-742 248.96,-742 245.62,-738.67 245.62,-735.33 245.62,-735.33 245.62,-728.67 245.62,-728.67 245.62,-725.33 248.96,-722 252.29,-722 252.29,-722 482.21,-722 482.21,-722 485.54,-722 488.88,-725.33 488.88,-728.67 488.88,-728.67 488.88,-735.33 488.88,-735.33 488.88,-738.67 485.54,-742 482.21,-742"/>
<text text-anchor="middle" x="367.25" y="-728.5" font-family="Arial" font-size="10.00" fill="#cfffac">.next/server/vendor&#45;chunks/node&#45;gyp&#45;build@4.8.1.js</text>
</g>
<!-- .next/server/vendor&#45;chunks/utf&#45;8&#45;validate@6.0.3.js -->
<g id="node25" class="node">
<title>.next/server/vendor&#45;chunks/utf&#45;8&#45;validate@6.0.3.js</title>
<path fill="none" stroke="#cfffac" d="M478.83,-780C478.83,-780 255.67,-780 255.67,-780 252.33,-780 249,-776.67 249,-773.33 249,-773.33 249,-766.67 249,-766.67 249,-763.33 252.33,-760 255.67,-760 255.67,-760 478.83,-760 478.83,-760 482.17,-760 485.5,-763.33 485.5,-766.67 485.5,-766.67 485.5,-773.33 485.5,-773.33 485.5,-776.67 482.17,-780 478.83,-780"/>
<text text-anchor="middle" x="367.25" y="-766.5" font-family="Arial" font-size="10.00" fill="#cfffac">.next/server/vendor&#45;chunks/utf&#45;8&#45;validate@6.0.3.js</text>
</g>
<!-- .next/server/vendor&#45;chunks/ws@8.14.2_bufferutil@4.0.8_utf&#45;8&#45;validate@6.0.3.js -->
<g id="node26" class="node">
<title>.next/server/vendor&#45;chunks/ws@8.14.2_bufferutil@4.0.8_utf&#45;8&#45;validate@6.0.3.js</title>
<path fill="none" stroke="#cfffac" d="M543.71,-818C543.71,-818 190.79,-818 190.79,-818 187.46,-818 184.12,-814.67 184.12,-811.33 184.12,-811.33 184.12,-804.67 184.12,-804.67 184.12,-801.33 187.46,-798 190.79,-798 190.79,-798 543.71,-798 543.71,-798 547.04,-798 550.38,-801.33 550.38,-804.67 550.38,-804.67 550.38,-811.33 550.38,-811.33 550.38,-814.67 547.04,-818 543.71,-818"/>
<text text-anchor="middle" x="367.25" y="-804.5" font-family="Arial" font-size="10.00" fill="#cfffac">.next/server/vendor&#45;chunks/ws@8.14.2_bufferutil@4.0.8_utf&#45;8&#45;validate@6.0.3.js</text>
</g>
<!-- .next/static/chunks/app&#45;pages&#45;internals.js -->
<g id="node27" class="node">
<title>.next/static/chunks/app&#45;pages&#45;internals.js</title>
<path fill="none" stroke="#cfffac" d="M459.33,-856C459.33,-856 275.17,-856 275.17,-856 271.83,-856 268.5,-852.67 268.5,-849.33 268.5,-849.33 268.5,-842.67 268.5,-842.67 268.5,-839.33 271.83,-836 275.17,-836 275.17,-836 459.33,-836 459.33,-836 462.67,-836 466,-839.33 466,-842.67 466,-842.67 466,-849.33 466,-849.33 466,-852.67 462.67,-856 459.33,-856"/>
<text text-anchor="middle" x="367.25" y="-842.5" font-family="Arial" font-size="10.00" fill="#cfffac">.next/static/chunks/app&#45;pages&#45;internals.js</text>
</g>
<!-- .next/static/chunks/app/_not&#45;found/page.js -->
<g id="node28" class="node">
<title>.next/static/chunks/app/_not&#45;found/page.js</title>
<path fill="none" stroke="#cfffac" d="M461.21,-894C461.21,-894 273.29,-894 273.29,-894 269.96,-894 266.62,-890.67 266.62,-887.33 266.62,-887.33 266.62,-880.67 266.62,-880.67 266.62,-877.33 269.96,-874 273.29,-874 273.29,-874 461.21,-874 461.21,-874 464.54,-874 467.88,-877.33 467.88,-880.67 467.88,-880.67 467.88,-887.33 467.88,-887.33 467.88,-890.67 464.54,-894 461.21,-894"/>
<text text-anchor="middle" x="367.25" y="-880.5" font-family="Arial" font-size="10.00" fill="#cfffac">.next/static/chunks/app/_not&#45;found/page.js</text>
</g>
<!-- .next/static/chunks/app/dashboard/(overview)/page.js -->
<g id="node29" class="node">
<title>.next/static/chunks/app/dashboard/(overview)/page.js</title>
<path fill="none" stroke="#cfffac" d="M484.83,-932C484.83,-932 249.67,-932 249.67,-932 246.33,-932 243,-928.67 243,-925.33 243,-925.33 243,-918.67 243,-918.67 243,-915.33 246.33,-912 249.67,-912 249.67,-912 484.83,-912 484.83,-912 488.17,-912 491.5,-915.33 491.5,-918.67 491.5,-918.67 491.5,-925.33 491.5,-925.33 491.5,-928.67 488.17,-932 484.83,-932"/>
<text text-anchor="middle" x="367.25" y="-918.5" font-family="Arial" font-size="10.00" fill="#cfffac">.next/static/chunks/app/dashboard/(overview)/page.js</text>
</g>
<!-- .next/static/chunks/app/dashboard/invoices/page.js -->
<g id="node30" class="node">
<title>.next/static/chunks/app/dashboard/invoices/page.js</title>
<path fill="none" stroke="#cfffac" d="M480.33,-970C480.33,-970 254.17,-970 254.17,-970 250.83,-970 247.5,-966.67 247.5,-963.33 247.5,-963.33 247.5,-956.67 247.5,-956.67 247.5,-953.33 250.83,-950 254.17,-950 254.17,-950 480.33,-950 480.33,-950 483.67,-950 487,-953.33 487,-956.67 487,-956.67 487,-963.33 487,-963.33 487,-966.67 483.67,-970 480.33,-970"/>
<text text-anchor="middle" x="367.25" y="-956.5" font-family="Arial" font-size="10.00" fill="#cfffac">.next/static/chunks/app/dashboard/invoices/page.js</text>
</g>
<!-- .next/static/chunks/app/dashboard/layout.js -->
<g id="node31" class="node">
<title>.next/static/chunks/app/dashboard/layout.js</title>
<path fill="none" stroke="#cfffac" d="M463.46,-1008C463.46,-1008 271.04,-1008 271.04,-1008 267.71,-1008 264.38,-1004.67 264.38,-1001.33 264.38,-1001.33 264.38,-994.67 264.38,-994.67 264.38,-991.33 267.71,-988 271.04,-988 271.04,-988 463.46,-988 463.46,-988 466.79,-988 470.12,-991.33 470.12,-994.67 470.12,-994.67 470.12,-1001.33 470.12,-1001.33 470.12,-1004.67 466.79,-1008 463.46,-1008"/>
<text text-anchor="middle" x="367.25" y="-994.5" font-family="Arial" font-size="10.00" fill="#cfffac">.next/static/chunks/app/dashboard/layout.js</text>
</g>
<!-- .next/static/chunks/app/layout.js -->
<g id="node32" class="node">
<title>.next/static/chunks/app/layout.js</title>
<path fill="none" stroke="#cfffac" d="M439.46,-1046C439.46,-1046 295.04,-1046 295.04,-1046 291.71,-1046 288.38,-1042.67 288.38,-1039.33 288.38,-1039.33 288.38,-1032.67 288.38,-1032.67 288.38,-1029.33 291.71,-1026 295.04,-1026 295.04,-1026 439.46,-1026 439.46,-1026 442.79,-1026 446.12,-1029.33 446.12,-1032.67 446.12,-1032.67 446.12,-1039.33 446.12,-1039.33 446.12,-1042.67 442.79,-1046 439.46,-1046"/>
<text text-anchor="middle" x="367.25" y="-1032.5" font-family="Arial" font-size="10.00" fill="#cfffac">.next/static/chunks/app/layout.js</text>
</g>
<!-- .next/static/chunks/main&#45;app.js -->
<g id="node33" class="node">
<title>.next/static/chunks/main&#45;app.js</title>
<path fill="none" stroke="#cfffac" d="M436.83,-1084C436.83,-1084 297.67,-1084 297.67,-1084 294.33,-1084 291,-1080.67 291,-1077.33 291,-1077.33 291,-1070.67 291,-1070.67 291,-1067.33 294.33,-1064 297.67,-1064 297.67,-1064 436.83,-1064 436.83,-1064 440.17,-1064 443.5,-1067.33 443.5,-1070.67 443.5,-1070.67 443.5,-1077.33 443.5,-1077.33 443.5,-1080.67 440.17,-1084 436.83,-1084"/>
<text text-anchor="middle" x="367.25" y="-1070.5" font-family="Arial" font-size="10.00" fill="#cfffac">.next/static/chunks/main&#45;app.js</text>
</g>
<!-- .next/static/chunks/polyfills.js -->
<g id="node34" class="node">
<title>.next/static/chunks/polyfills.js</title>
<path fill="none" stroke="#cfffac" d="M433.46,-1122C433.46,-1122 301.04,-1122 301.04,-1122 297.71,-1122 294.38,-1118.67 294.38,-1115.33 294.38,-1115.33 294.38,-1108.67 294.38,-1108.67 294.38,-1105.33 297.71,-1102 301.04,-1102 301.04,-1102 433.46,-1102 433.46,-1102 436.79,-1102 440.12,-1105.33 440.12,-1108.67 440.12,-1108.67 440.12,-1115.33 440.12,-1115.33 440.12,-1118.67 436.79,-1122 433.46,-1122"/>
<text text-anchor="middle" x="367.25" y="-1108.5" font-family="Arial" font-size="10.00" fill="#cfffac">.next/static/chunks/polyfills.js</text>
</g>
<!-- .next/static/chunks/webpack.js -->
<g id="node35" class="node">
<title>.next/static/chunks/webpack.js</title>
<path fill="none" stroke="#cfffac" d="M436.46,-1160C436.46,-1160 298.04,-1160 298.04,-1160 294.71,-1160 291.38,-1156.67 291.38,-1153.33 291.38,-1153.33 291.38,-1146.67 291.38,-1146.67 291.38,-1143.33 294.71,-1140 298.04,-1140 298.04,-1140 436.46,-1140 436.46,-1140 439.79,-1140 443.12,-1143.33 443.12,-1146.67 443.12,-1146.67 443.12,-1153.33 443.12,-1153.33 443.12,-1156.67 439.79,-1160 436.46,-1160"/>
<text text-anchor="middle" x="367.25" y="-1146.5" font-family="Arial" font-size="10.00" fill="#cfffac">.next/static/chunks/webpack.js</text>
</g>
<!-- .next/static/development/_buildManifest.js -->
<g id="node36" class="node">
<title>.next/static/development/_buildManifest.js</title>
<path fill="none" stroke="#cfffac" d="M460.46,-1198C460.46,-1198 274.04,-1198 274.04,-1198 270.71,-1198 267.38,-1194.67 267.38,-1191.33 267.38,-1191.33 267.38,-1184.67 267.38,-1184.67 267.38,-1181.33 270.71,-1178 274.04,-1178 274.04,-1178 460.46,-1178 460.46,-1178 463.79,-1178 467.12,-1181.33 467.12,-1184.67 467.12,-1184.67 467.12,-1191.33 467.12,-1191.33 467.12,-1194.67 463.79,-1198 460.46,-1198"/>
<text text-anchor="middle" x="367.25" y="-1184.5" font-family="Arial" font-size="10.00" fill="#cfffac">.next/static/development/_buildManifest.js</text>
</g>
<!-- .next/static/development/_ssgManifest.js -->
<g id="node37" class="node">
<title>.next/static/development/_ssgManifest.js</title>
<path fill="none" stroke="#cfffac" d="M458.21,-1236C458.21,-1236 276.29,-1236 276.29,-1236 272.96,-1236 269.62,-1232.67 269.62,-1229.33 269.62,-1229.33 269.62,-1222.67 269.62,-1222.67 269.62,-1219.33 272.96,-1216 276.29,-1216 276.29,-1216 458.21,-1216 458.21,-1216 461.54,-1216 464.88,-1219.33 464.88,-1222.67 464.88,-1222.67 464.88,-1229.33 464.88,-1229.33 464.88,-1232.67 461.54,-1236 458.21,-1236"/>
<text text-anchor="middle" x="367.25" y="-1222.5" font-family="Arial" font-size="10.00" fill="#cfffac">.next/static/development/_ssgManifest.js</text>
</g>
<!-- .next/static/webpack/app/dashboard/invoices/page.83344d139e6cef6d.hot&#45;update.js -->
<g id="node38" class="node">
<title>.next/static/webpack/app/dashboard/invoices/page.83344d139e6cef6d.hot&#45;update.js</title>
<path fill="none" stroke="#cfffac" d="M550.83,-1274C550.83,-1274 183.67,-1274 183.67,-1274 180.33,-1274 177,-1270.67 177,-1267.33 177,-1267.33 177,-1260.67 177,-1260.67 177,-1257.33 180.33,-1254 183.67,-1254 183.67,-1254 550.83,-1254 550.83,-1254 554.17,-1254 557.5,-1257.33 557.5,-1260.67 557.5,-1260.67 557.5,-1267.33 557.5,-1267.33 557.5,-1270.67 554.17,-1274 550.83,-1274"/>
<text text-anchor="middle" x="367.25" y="-1260.5" font-family="Arial" font-size="10.00" fill="#cfffac">.next/static/webpack/app/dashboard/invoices/page.83344d139e6cef6d.hot&#45;update.js</text>
</g>
<!-- .next/static/webpack/app/dashboard/invoices/page.8738b00b0076bb55.hot&#45;update.js -->
<g id="node39" class="node">
<title>.next/static/webpack/app/dashboard/invoices/page.8738b00b0076bb55.hot&#45;update.js</title>
<path fill="none" stroke="#cfffac" d="M551.96,-1312C551.96,-1312 182.54,-1312 182.54,-1312 179.21,-1312 175.88,-1308.67 175.88,-1305.33 175.88,-1305.33 175.88,-1298.67 175.88,-1298.67 175.88,-1295.33 179.21,-1292 182.54,-1292 182.54,-1292 551.96,-1292 551.96,-1292 555.29,-1292 558.62,-1295.33 558.62,-1298.67 558.62,-1298.67 558.62,-1305.33 558.62,-1305.33 558.62,-1308.67 555.29,-1312 551.96,-1312"/>
<text text-anchor="middle" x="367.25" y="-1298.5" font-family="Arial" font-size="10.00" fill="#cfffac">.next/static/webpack/app/dashboard/invoices/page.8738b00b0076bb55.hot&#45;update.js</text>
</g>
<!-- .next/static/webpack/app/layout.81321a37b3b3ef3d.hot&#45;update.js -->
<g id="node40" class="node">
<title>.next/static/webpack/app/layout.81321a37b3b3ef3d.hot&#45;update.js</title>
<path fill="none" stroke="#cfffac" d="M509.96,-1350C509.96,-1350 224.54,-1350 224.54,-1350 221.21,-1350 217.88,-1346.67 217.88,-1343.33 217.88,-1343.33 217.88,-1336.67 217.88,-1336.67 217.88,-1333.33 221.21,-1330 224.54,-1330 224.54,-1330 509.96,-1330 509.96,-1330 513.29,-1330 516.62,-1333.33 516.62,-1336.67 516.62,-1336.67 516.62,-1343.33 516.62,-1343.33 516.62,-1346.67 513.29,-1350 509.96,-1350"/>
<text text-anchor="middle" x="367.25" y="-1336.5" font-family="Arial" font-size="10.00" fill="#cfffac">.next/static/webpack/app/layout.81321a37b3b3ef3d.hot&#45;update.js</text>
</g>
<!-- .next/static/webpack/app/layout.83344d139e6cef6d.hot&#45;update.js -->
<g id="node41" class="node">
<title>.next/static/webpack/app/layout.83344d139e6cef6d.hot&#45;update.js</title>
<path fill="none" stroke="#cfffac" d="M509.96,-1388C509.96,-1388 224.54,-1388 224.54,-1388 221.21,-1388 217.88,-1384.67 217.88,-1381.33 217.88,-1381.33 217.88,-1374.67 217.88,-1374.67 217.88,-1371.33 221.21,-1368 224.54,-1368 224.54,-1368 509.96,-1368 509.96,-1368 513.29,-1368 516.62,-1371.33 516.62,-1374.67 516.62,-1374.67 516.62,-1381.33 516.62,-1381.33 516.62,-1384.67 513.29,-1388 509.96,-1388"/>
<text text-anchor="middle" x="367.25" y="-1374.5" font-family="Arial" font-size="10.00" fill="#cfffac">.next/static/webpack/app/layout.83344d139e6cef6d.hot&#45;update.js</text>
</g>
<!-- .next/static/webpack/app/layout.8738b00b0076bb55.hot&#45;update.js -->
<g id="node42" class="node">
<title>.next/static/webpack/app/layout.8738b00b0076bb55.hot&#45;update.js</title>
<path fill="none" stroke="#cfffac" d="M511.08,-1426C511.08,-1426 223.42,-1426 223.42,-1426 220.08,-1426 216.75,-1422.67 216.75,-1419.33 216.75,-1419.33 216.75,-1412.67 216.75,-1412.67 216.75,-1409.33 220.08,-1406 223.42,-1406 223.42,-1406 511.08,-1406 511.08,-1406 514.42,-1406 517.75,-1409.33 517.75,-1412.67 517.75,-1412.67 517.75,-1419.33 517.75,-1419.33 517.75,-1422.67 514.42,-1426 511.08,-1426"/>
<text text-anchor="middle" x="367.25" y="-1412.5" font-family="Arial" font-size="10.00" fill="#cfffac">.next/static/webpack/app/layout.8738b00b0076bb55.hot&#45;update.js</text>
</g>
<!-- .next/static/webpack/webpack.1e9d731e551bbc4a.hot&#45;update.js -->
<g id="node43" class="node">
<title>.next/static/webpack/webpack.1e9d731e551bbc4a.hot&#45;update.js</title>
<path fill="none" stroke="#cfffac" d="M508.08,-1464C508.08,-1464 226.42,-1464 226.42,-1464 223.08,-1464 219.75,-1460.67 219.75,-1457.33 219.75,-1457.33 219.75,-1450.67 219.75,-1450.67 219.75,-1447.33 223.08,-1444 226.42,-1444 226.42,-1444 508.08,-1444 508.08,-1444 511.42,-1444 514.75,-1447.33 514.75,-1450.67 514.75,-1450.67 514.75,-1457.33 514.75,-1457.33 514.75,-1460.67 511.42,-1464 508.08,-1464"/>
<text text-anchor="middle" x="367.25" y="-1450.5" font-family="Arial" font-size="10.00" fill="#cfffac">.next/static/webpack/webpack.1e9d731e551bbc4a.hot&#45;update.js</text>
</g>
<!-- .next/static/webpack/webpack.237ece69d2ae44b5.hot&#45;update.js -->
<g id="node44" class="node">
<title>.next/static/webpack/webpack.237ece69d2ae44b5.hot&#45;update.js</title>
<path fill="none" stroke="#cfffac" d="M508.08,-1502C508.08,-1502 226.42,-1502 226.42,-1502 223.08,-1502 219.75,-1498.67 219.75,-1495.33 219.75,-1495.33 219.75,-1488.67 219.75,-1488.67 219.75,-1485.33 223.08,-1482 226.42,-1482 226.42,-1482 508.08,-1482 508.08,-1482 511.42,-1482 514.75,-1485.33 514.75,-1488.67 514.75,-1488.67 514.75,-1495.33 514.75,-1495.33 514.75,-1498.67 511.42,-1502 508.08,-1502"/>
<text text-anchor="middle" x="367.25" y="-1488.5" font-family="Arial" font-size="10.00" fill="#cfffac">.next/static/webpack/webpack.237ece69d2ae44b5.hot&#45;update.js</text>
</g>
<!-- .next/static/webpack/webpack.81321a37b3b3ef3d.hot&#45;update.js -->
<g id="node45" class="node">
<title>.next/static/webpack/webpack.81321a37b3b3ef3d.hot&#45;update.js</title>
<path fill="none" stroke="#cfffac" d="M506.96,-1540C506.96,-1540 227.54,-1540 227.54,-1540 224.21,-1540 220.88,-1536.67 220.88,-1533.33 220.88,-1533.33 220.88,-1526.67 220.88,-1526.67 220.88,-1523.33 224.21,-1520 227.54,-1520 227.54,-1520 506.96,-1520 506.96,-1520 510.29,-1520 513.62,-1523.33 513.62,-1526.67 513.62,-1526.67 513.62,-1533.33 513.62,-1533.33 513.62,-1536.67 510.29,-1540 506.96,-1540"/>
<text text-anchor="middle" x="367.25" y="-1526.5" font-family="Arial" font-size="10.00" fill="#cfffac">.next/static/webpack/webpack.81321a37b3b3ef3d.hot&#45;update.js</text>
</g>
<!-- .next/static/webpack/webpack.83344d139e6cef6d.hot&#45;update.js -->
<g id="node46" class="node">
<title>.next/static/webpack/webpack.83344d139e6cef6d.hot&#45;update.js</title>
<path fill="none" stroke="#cfffac" d="M506.96,-1578C506.96,-1578 227.54,-1578 227.54,-1578 224.21,-1578 220.88,-1574.67 220.88,-1571.33 220.88,-1571.33 220.88,-1564.67 220.88,-1564.67 220.88,-1561.33 224.21,-1558 227.54,-1558 227.54,-1558 506.96,-1558 506.96,-1558 510.29,-1558 513.62,-1561.33 513.62,-1564.67 513.62,-1564.67 513.62,-1571.33 513.62,-1571.33 513.62,-1574.67 510.29,-1578 506.96,-1578"/>
<text text-anchor="middle" x="367.25" y="-1564.5" font-family="Arial" font-size="10.00" fill="#cfffac">.next/static/webpack/webpack.83344d139e6cef6d.hot&#45;update.js</text>
</g>
<!-- .next/static/webpack/webpack.8738b00b0076bb55.hot&#45;update.js -->
<g id="node47" class="node">
<title>.next/static/webpack/webpack.8738b00b0076bb55.hot&#45;update.js</title>
<path fill="none" stroke="#cfffac" d="M508.08,-1616C508.08,-1616 226.42,-1616 226.42,-1616 223.08,-1616 219.75,-1612.67 219.75,-1609.33 219.75,-1609.33 219.75,-1602.67 219.75,-1602.67 219.75,-1599.33 223.08,-1596 226.42,-1596 226.42,-1596 508.08,-1596 508.08,-1596 511.42,-1596 514.75,-1599.33 514.75,-1602.67 514.75,-1602.67 514.75,-1609.33 514.75,-1609.33 514.75,-1612.67 511.42,-1616 508.08,-1616"/>
<text text-anchor="middle" x="367.25" y="-1602.5" font-family="Arial" font-size="10.00" fill="#cfffac">.next/static/webpack/webpack.8738b00b0076bb55.hot&#45;update.js</text>
</g>
<!-- postcss.config.js -->
<g id="node48" class="node">
<title>postcss.config.js</title>
<path fill="none" stroke="#cfffac" d="M405.71,-1654C405.71,-1654 328.79,-1654 328.79,-1654 325.46,-1654 322.12,-1650.67 322.12,-1647.33 322.12,-1647.33 322.12,-1640.67 322.12,-1640.67 322.12,-1637.33 325.46,-1634 328.79,-1634 328.79,-1634 405.71,-1634 405.71,-1634 409.04,-1634 412.38,-1637.33 412.38,-1640.67 412.38,-1640.67 412.38,-1647.33 412.38,-1647.33 412.38,-1650.67 409.04,-1654 405.71,-1654"/>
<text text-anchor="middle" x="367.25" y="-1640.5" font-family="Arial" font-size="10.00" fill="#cfffac">postcss.config.js</text>
</g>
</g>
</svg>
